<svg width="14" height="14" viewBox="0 0 14 14" fill="none" xmlns="http://www.w3.org/2000/svg">
<mask id="mask0_1093_1461" style="mask-type:alpha" maskUnits="userSpaceOnUse" x="0" y="0" width="14" height="14">
<rect width="14" height="14" fill="#D9D9D9"/>
</mask>
<g mask="url(#mask0_1093_1461)">
<path d="M9.95864 7.29166H3.20768C3.12466 7.29166 3.0553 7.2638 2.99959 7.20809C2.94387 7.15238 2.91602 7.08301 2.91602 7C2.91602 6.91698 2.94387 6.84761 2.99959 6.79191C3.0553 6.73619 3.12466 6.70833 3.20768 6.70833H9.95864L7.78011 4.5298C7.72328 4.47296 7.69355 4.40603 7.69093 4.329C7.68832 4.25197 7.71804 4.1813 7.78011 4.11699C7.84443 4.05267 7.9138 4.01995 7.98822 4.01883C8.06263 4.0177 8.13199 4.0493 8.19631 4.11362L10.7529 6.67019C10.8037 6.72104 10.8394 6.77302 10.86 6.82612C10.8806 6.87921 10.8909 6.93717 10.8909 7C10.8909 7.06282 10.8806 7.12078 10.86 7.17387C10.8394 7.22698 10.8037 7.27895 10.7529 7.3298L8.19631 9.88637C8.13947 9.94321 8.07197 9.97294 7.99382 9.97556C7.91567 9.97818 7.84443 9.94733 7.78011 9.883C7.71804 9.81869 7.68645 9.74989 7.68532 9.67659C7.6842 9.60331 7.7158 9.53451 7.78011 9.47019L9.95864 7.29166Z" fill="white"/>
</g>
</svg>
